# xmcd CD database file
#
# Track frame offsets:
#	150
#	26762
#	50847
#	68674
#	87046
#	110941
#	130656
#	150996
#	171701
#	203726
#	234796
#	249041
#	268731
#	297214
#	319914
#
# Disc length: 4627 seconds
#
# Revision: 1
# Processed by: cddbd v1.5.2PL0 Copyright (c) Steve Scherf et al.
# Submitted via: CDex 1.70beta2
#
DISCID=d012110f
DTITLE=Various Artist - Audiophiler Blues
DYEAR=1900
DGENRE=Blues
TTITLE0=01 Toscho - A Place to Rest
TTITLE1=02 J.S.Taylor - Heavy Heart
TTITLE2=03 Schenker and Barden - Dance little Gypsy
TTITLE3=04 Tom Freund - Collapsible Plans
TTITLE4=05 Kenny Neal - Whiskey Tears
TTITLE5=06 Ana Popovic - Love Fever
TTITLE6=07 Marc Reese - Little Guy
TTITLE7=08 Cadillac Blues Band - Miss You
TTITLE8=09 Guitar Crasher - Message to Man
TTITLE9=10 Vivino Brothers - Soul Revival
TTITLE10=11 Stephen Simmons - Time to pay
TTITLE11=12 Miller Anderson - By the Light
TTITLE12=13 Telecats - Nelly
TTITLE13=14 Ray Hubbard - Last Train to Amsterdam
TTITLE14=15 Stytz Syndicate - Traces of Lovers
EXTD=
EXTT0=
EXTT1=
EXTT2=
EXTT3=
EXTT4=
EXTT5=
EXTT6=
EXTT7=
EXTT8=
EXTT9=
EXTT10=
EXTT11=
EXTT12=
EXTT13=
EXTT14=
PLAYORDER=
